<svg width="56.59" height="56.59" xmlns="http://www.w3.org/2000/svg" data-name="Layer 1">
 <title>Artboard 1</title>

 <g>
  <title>Layer 1</title>
  <path class="cls-1" d="m56,28.3c-1.15,-11.75 -13.69,-21.09 -27.69,-21.09l0,-7.21a28.32,28.32 0 0 1 28.29,28.3l-0.6,0z" fill="#ffc425" id="svg_1"/>
  <path class="cls-1" d="m48.79,28.31c-0.79,-7.7 -10.79,-13.31 -20.47,-13.31l0,-7.16c11,0.12 20.79,9.52 21.08,20.5l-0.61,-0.03z" fill="#ffc425" id="svg_2"/>
  <path class="cls-2" d="m28.3,56c11.75,-1.11 21.09,-13.65 21.09,-27.65l7.21,0a28.31,28.31 0 0 1 -28.3,28.3l0,-0.65z" fill="#00703c" id="svg_3"/>
  <path class="cls-2" d="m28.29,48.79c7.71,-0.79 13.34,-10.79 13.34,-20.47l7.16,0c-0.12,11 -9.51,20.79 -20.5,21.08l0,-0.61z" fill="#00703c" id="svg_4"/>
  <path class="cls-1" d="m0.63,28.29c1.12,11.71 13.66,21.1 27.66,21.1l0,7.21a28.32,28.32 0 0 1 -28.29,-28.3l0.63,-0.01z" fill="#ffc425" id="svg_5"/>
  <path class="cls-1" d="m7.81,28.29c0.75,7.71 10.74,13.34 20.46,13.34l0,7.16c-11,-0.12 -20.79,-9.51 -21.08,-20.5l0.62,0z" fill="#ffc425" id="svg_6"/>
  <path class="cls-2" d="m28.3,0.63c-11.75,1.12 -21.09,13.66 -21.09,27.66l-7.21,0a28.31,28.31 0 0 1 28.3,-28.29l0,0.63z" fill="#00703c" id="svg_7"/>
  <path class="cls-2" d="m28.31,7.81c-7.7,0.75 -13.31,10.74 -13.31,20.46l-7.16,0c0.12,-11 9.51,-20.79 20.5,-21.08l-0.03,0.62z" fill="#00703c" id="svg_8"/>
 </g>
</svg>